PathFileType	4	(X/Y/Z)	c:\Git\powerlifing_model_clean\simulations\HC835B\Session1\HC835B_CUT_0004\marker_experimental.trc
DataRate	CameraRate	NumFrames	NumMarkers	Units	OrigDataRate	OrigDataStartFrame	OrigNumFrames
240.000000	240.000000	4	38	mm	240.000000	67	77
Frame#	Time	RPSI			LPSI			RASI			LASI			RTH1			RTH2			RTH3			RTH4			RSK1			RSK2			RSK3			RSK4			RCAL1			RCAL2			RCAL3			RST			RPT			RTN			RFMB			RSMB			RVMB			RFMH			RSMH			RVMH			RPM			LTH1			LTH2			LTH3			LTH4			LSK1			LSK2			LSK3			LSK4			LCAL1			LCAL2			LCAL3			LFMH			LVMH			
		X1	Y1	Z1	X2	Y2	Z2	X3	Y3	Z3	X4	Y4	Z4	X5	Y5	Z5	X6	Y6	Z6	X7	Y7	Z7	X8	Y8	Z8	X9	Y9	Z9	X10	Y10	Z10	X11	Y11	Z11	X12	Y12	Z12	X13	Y13	Z13	X14	Y14	Z14	X15	Y15	Z15	X16	Y16	Z16	X17	Y17	Z17	X18	Y18	Z18	X19	Y19	Z19	X20	Y20	Z20	X21	Y21	Z21	X22	Y22	Z22	X23	Y23	Z23	X24	Y24	Z24	X25	Y25	Z25	X26	Y26	Z26	X27	Y27	Z27	X28	Y28	Z28	X29	Y29	Z29	X30	Y30	Z30	X31	Y31	Z31	X32	Y32	Z32	X33	Y33	Z33	X34	Y34	Z34	X35	Y35	Z35	X36	Y36	Z36	X37	Y37	Z37	X38	Y38	Z38	

68	0.2791666666666667	-108.8620986938477	1071.923217773438	-958.9864501953127	-188.4130401611328	1024.138427734375	-902.9798583984377	-131.8486633300782	997.511657714844	-1160.339721679688	-325.1351928710938	935.7017211914065	-1053.807983398438	103.3969268798828	815.128601074219	-1071.035522460938	82.44784545898439	774.185241699219	-1110.582641601563	129.7212829589844	735.2980346679689	-1061.578247070313	102.3818511962891	693.1956176757814	-1091.967651367188	380.0900573730469	454.7807922363282	-806.894226074219	375.6538696289063	402.3370971679689	-839.292663574219	406.7287902832032	406.6036987304689	-786.8131103515627	392.9226684570314	353.4189758300782	-811.028747558594	446.3146057128907	357.6701660156251	-659.9193115234376	427.1283569335939	336.2054138183594	-619.3279418945314	488.1317443847657	345.5083618164063	-638.4583740234376	411.6877746582032	273.0291442871094	-651.6336669921876	507.8665161132814	296.0479736328126	-674.7611083984376	419.5769348144532	230.0447387695313	-693.0581665039064	429.0155639648439	195.6697692871094	-689.4970703125001	467.1221313476564	199.7249298095704	-728.4791259765626	527.2424926757814	246.6483001708985	-668.9343872070314	437.7762145996095	136.3748626708985	-677.8040161132814	482.1074218750001	133.8031158447266	-711.2138061523439	549.1883544921876	170.585693359375	-687.1861572265626	477.0165100097657	75.3721160888672	-719.7844238281251	0	0	0	-368.4839782714844	721.4682006835939	-1137.792236328125	-348.7662658691407	650.2488403320314	-1175.5947265625	-378.5714416503907	685.8428344726564	-1216.0771484375	-176.0175476074219	298.1216125488282	-1328.032836914063	-201.9873962402344	278.6107177734376	-1370.514526367188	-160.7342224121094	252.1019287109376	-1357.675537109375	-179.4535064697266	242.4104919433594	-1410.640625	-26.8231544494629	140.8181915283203	-1389.026611328125	-39.5634880065918	94.25057983398439	-1391.59716796875	3.219556331634522	122.1667175292969	-1420.338989257813	-126.1893386840821	169.7146453857422	-1595.39404296875	-172.0491638183594	91.40232849121095	-1533.443237304688	
69	0.2833333333333333	-118.8749008178711	1074.004638671875	-977.3768310546877	-197.9769592285157	1025.8544921875	-921.089782714844	-142.4779357910157	998.3090820312502	-1178.266235351563	-334.4529113769532	937.2868652343752	-1071.510498046875	93.00141906738283	813.8122558593752	-1092.140869140625	70.80484008789064	772.9297485351565	-1131.08935546875	118.9861831665039	733.8183593750001	-1083.18798828125	90.65888977050783	691.8603515625001	-1112.776245117188	371.1100158691407	462.9176330566407	-822.5569458007815	368.8101806640626	409.7505798339845	-853.6726074218752	399.2117614746095	416.1632385253907	-800.9953613281252	386.839813232422	361.9440002441407	-823.9058837890627	436.9386596679689	371.4530334472657	-672.1684570312501	418.2527770996095	350.3125305175782	-631.4044189453126	479.0592651367189	361.3587646484376	-650.0038452148439	405.5169067382814	285.1690368652344	-663.1519775390626	500.9995117187501	312.0223083496094	-685.3190307617189	415.1315002441407	242.3495483398438	-702.8987426757814	426.5122680664064	208.1909179687501	-698.9436645507814	464.8275146484376	213.3729858398438	-737.4318237304689	522.1731567382814	263.5804443359376	-678.4494628906251	437.5660400390626	149.5389556884766	-686.4210815429689	482.117401123047	148.0508270263672	-719.1171875000001	547.2846069335939	188.089828491211	-695.2612915039064	479.7894592285157	89.25775146484376	-726.7064819335939	0	0	0	-376.6680603027344	717.4281005859376	-1155.21923828125	-354.6247253417969	645.9821777343751	-1192.795776367188	-385.4507446289064	680.8399658203126	-1233.15087890625	-185.6770935058594	292.2629394531251	-1351.089233398438	-212.9436798095704	273.8071594238282	-1395.023559570313	-171.674545288086	246.3532409667969	-1384.160522460938	-192.6447448730469	239.3890228271485	-1438.998291015625	-41.17329406738282	133.0363159179688	-1422.434692382813	-54.33993530273439	86.89376068115236	-1426.719116210938	-11.6865463256836	115.5712203979492	-1454.91455078125	-143.1034545898438	171.4010620117188	-1625.955688476563	-188.8212280273438	90.91961669921876	-1566.548217773438	
70	0.2875	-128.9900665283203	1075.892944335938	-995.6052246093752	-207.5985260009766	1027.340087890625	-939.0317993164065	-152.6858520507813	999.599060058594	-1196.164306640625	-343.5826110839844	938.5478515625002	-1088.9091796875	82.21911621093751	812.0372314453127	-1113.723022460938	58.67504119873048	771.092712402344	-1151.870239257813	107.6593933105469	731.7088012695314	-1105.108276367188	78.49204254150392	690.0372314453126	-1133.975830078125	362.0263366699219	471.9006652832032	-838.3021240234377	361.8357238769532	417.7330322265626	-868.1719360351565	390.8385620117189	426.2272949218751	-815.1135864257815	380.7473754882813	371.2004394531251	-837.1401367187502	427.6441955566407	386.0155639648439	-684.3612060546876	408.2266540527345	363.9571838378907	-644.1767578125001	469.0144958496095	377.1858215332032	-661.7019042968751	398.7600097656251	298.3881835937501	-674.8407592773439	493.4745178222657	328.2924194335938	-695.9490356445314	410.4218139648439	255.0635833740235	-714.2344970703126	423.3732910156251	221.4429473876954	-709.6151733398439	462.0844726562501	227.7166900634766	-747.3793334960939	516.2349243164064	280.8053588867188	-688.0668945312501	436.6303710937501	163.2055053710938	-696.1691284179689	481.796112060547	163.3671264648438	-728.1729736328126	544.6724243164064	206.1667175292969	-703.6029052734376	482.0101318359376	104.3735046386719	-734.9465942382814	0	0	0	-384.9799804687501	713.3667602539064	-1172.449462890625	-362.5078430175782	641.4395751953126	-1208.565551757813	-391.8685607910157	675.4464721679689	-1249.992309570313	-194.8104858398438	285.9579772949219	-1375.825927734375	-223.3066406250001	269.3344116210938	-1418.692626953125	-182.3027801513672	240.831771850586	-1409.805419921875	-204.7555847167969	235.4822387695313	-1464.209106445313	-55.19712066650392	126.1661911010742	-1454.207397460938	-68.84838104248048	80.42523193359376	-1459.981323242188	-26.32330513000489	109.5191040039063	-1487.793212890625	-159.4884948730469	172.6241760253907	-1654.9794921875	-205.1996459960938	90.55959320068361	-1597.73876953125	
71	0.2916666666666667	-139.2005615234375	1077.661499023438	-1013.749267578125	-217.2832336425782	1028.640014648438	-956.9472656250002	-163.4471893310547	999.598083496094	-1214.185668945313	-352.6943054199219	939.5574340820315	-1106.098754882813	71.02303314208986	809.9185791015627	-1135.480712890625	46.42804336547852	769.175476074219	-1173.093872070313	96.25955200195315	729.4891967773439	-1127.474853515625	66.12440490722658	687.9654541015626	-1155.626586914063	351.7163085937501	480.7149353027345	-854.016296386719	354.1749877929688	426.241180419922	-882.9077148437502	382.0921630859376	436.9492187500001	-829.5418090820315	374.6379394531251	381.1710205078126	-850.9440917968752	416.3619079589845	399.5715942382814	-697.5521850585939	397.9200439453126	377.1193542480469	-657.2913208007814	458.0078430175782	393.0063781738282	-673.6058959960939	391.2857055664064	311.4240722656251	-687.8619995117189	485.2295837402345	344.8497009277344	-706.7115478515626	405.7651367187501	268.1598205566407	-726.3265380859376	419.5403137207032	235.2889556884766	-721.4382324218751	459.0108947753907	242.8240966796876	-758.1190185546876	509.626190185547	298.3782348632813	-698.0222778320314	434.8240356445314	177.6245269775391	-707.1284179687501	480.8985900878907	179.452392578125	-737.9265136718751	541.3843994140626	224.8372802734376	-712.3638916015626	483.4750366210939	120.3592147827149	-744.3652343750001	0	0	0	-392.4924926757814	708.0032958984376	-1189.719970703125	-370.2189025878907	636.8179321289064	-1223.584716796875	-397.7714233398439	669.3231811523439	-1266.71728515625	-203.5371551513672	280.0831604003907	-1399.190795898438	-233.5586395263672	264.8445129394532	-1442.06787109375	-192.7071380615235	235.6641998291016	-1434.572509765625	-216.7449493408204	231.8790740966797	-1488.67236328125	-68.50769042968751	120.090316772461	-1484.507690429688	-83.03842163085939	74.59056091308595	-1491.29638671875	-40.46200942993165	104.0776290893555	-1518.806518554688	-175.3457641601563	173.2551879882813	-1682.31591796875	-221.0993652343751	90.04732513427736	-1626.686889648438	
